# xmcd
#
# Track frame offsets:
#	150
#	15040
#	29449
#	41074
#	59441
#	76426
#	91847
#	117498
#	137934
#
# Disc length: 2047 seconds
#
# Revision: 1
# Processed by: cddbd v1.4b41PL3 Copyright (c) Steve Scherf et al.
# Submitted via: audiograbber 1.80
#
DISCID=6f07fd09
DTITLE=Big Max - Walk On...
DYEAR=1900
DGENRE=
TTITLE0=Cheatin' On You
TTITLE1=Don't Start Me talkin'
TTITLE2=Great Balls Of Fire
TTITLE3=My Babe Caught A Train
TTITLE4=Hallelujah, I Love Her So
TTITLE5=Hold On
TTITLE6=No Expectations
TTITLE7=Rack 'm Up
TTITLE8=Walk On
EXTD=
EXTT0=
EXTT1=
EXTT2=
EXTT3=
EXTT4=
EXTT5=
EXTT6=
EXTT7=
EXTT8=
PLAYORDER=
